<svg width="32" height="32" viewBox="0 0 32 32" fill="none" xmlns="http://www.w3.org/2000/svg">
<path d="M5.33398 23.9744V12.9434C5.33398 8.0989 5.33398 5.67666 6.89608 4.17167C8.45818 2.66669 10.9723 2.66669 16.0007 2.66669C21.0289 2.66669 23.5432 2.66669 25.1052 4.17167C26.6673 5.67666 26.6673 8.0989 26.6673 12.9434V23.9744C26.6673 27.049 26.6673 28.5862 25.6369 29.1364C23.6413 30.2019 19.8983 26.647 18.1207 25.5766C17.0897 24.9558 16.5743 24.6454 16.0007 24.6454C15.4271 24.6454 14.9116 24.9558 13.8807 25.5766C12.1031 26.647 8.35994 30.2019 6.36445 29.1364C5.33398 28.5862 5.33398 27.049 5.33398 23.9744Z" stroke="#141B34" stroke-width="1.5" stroke-linecap="round" stroke-linejoin="round"/>
<path d="M5.33398 9.33331H26.6673" stroke="#141B34" stroke-width="1.5"/>
</svg>
