<svg width="32" height="32" viewBox="0 0 32 32" fill="none" xmlns="http://www.w3.org/2000/svg">
<path d="M20.6667 17.3333C25.4531 17.3333 29.3333 16.1394 29.3333 14.6667C29.3333 13.1939 25.4531 12 20.6667 12C15.8802 12 12 13.1939 12 14.6667C12 16.1394 15.8802 17.3333 20.6667 17.3333Z" stroke="#141B34" stroke-width="1.25"/>
<path d="M29.3333 20.6667C29.3333 22.1395 25.4532 23.3334 20.6667 23.3334C15.8801 23.3334 12 22.1395 12 20.6667" stroke="#141B34" stroke-width="1.25"/>
<path d="M29.3333 14.6667V26.4C29.3333 28.02 25.4532 29.3334 20.6667 29.3334C15.8801 29.3334 12 28.02 12 26.4V14.6667" stroke="#141B34" stroke-width="1.25"/>
<path d="M11.3327 8.00002C16.1191 8.00002 19.9993 6.80611 19.9993 5.33335C19.9993 3.86059 16.1191 2.66669 11.3327 2.66669C6.54621 2.66669 2.66602 3.86059 2.66602 5.33335C2.66602 6.80611 6.54621 8.00002 11.3327 8.00002Z" stroke="#141B34" stroke-width="1.25"/>
<path d="M7.99935 14.6667C5.47694 14.3597 3.15923 13.566 2.66602 12M7.99935 21.3333C5.47694 21.0264 3.15923 20.2327 2.66602 18.6667" stroke="#141B34" stroke-width="1.25" stroke-linecap="round"/>
<path d="M7.99935 28C5.47694 27.693 3.15923 26.8993 2.66602 25.3333V5.33331" stroke="#141B34" stroke-width="1.25" stroke-linecap="round"/>
<path d="M20 7.99998V5.33331" stroke="#141B34" stroke-width="1.25" stroke-linecap="round"/>
</svg>
