<svg width="32" height="32" viewBox="0 0 32 32" fill="none" xmlns="http://www.w3.org/2000/svg">
<path d="M19.3327 12C19.3327 13.841 17.8403 15.3334 15.9993 15.3334C14.1584 15.3334 12.666 13.841 12.666 12C12.666 10.1591 14.1584 8.66669 15.9993 8.66669C17.8403 8.66669 19.3327 10.1591 19.3327 12Z" stroke="#141B34" stroke-width="1.5"/>
<path d="M17.6759 23.3248C17.2261 23.7579 16.6251 24 15.9996 24C15.374 24 14.7729 23.7579 14.3232 23.3248C10.2051 19.3344 4.68627 14.8767 7.37763 8.40499C8.83282 4.90578 12.3259 2.66669 15.9996 2.66669C19.6732 2.66669 23.1663 4.90579 24.6215 8.40499C27.3095 14.8686 21.8041 19.3482 17.6759 23.3248Z" stroke="#141B34" stroke-width="1.5"/>
<path d="M24 26.6667C24 28.1395 20.4183 29.3334 16 29.3334C11.5817 29.3334 8 28.1395 8 26.6667" stroke="#141B34" stroke-width="1.5" stroke-linecap="round"/>
</svg>
