<svg width="32" height="32" viewBox="0 0 32 32" fill="none" xmlns="http://www.w3.org/2000/svg">
<path d="M18.666 29.3334V10.6667C18.666 6.89545 18.666 5.00983 17.4944 3.83826C16.3228 2.66669 14.4372 2.66669 10.666 2.66669C6.89478 2.66669 5.00916 2.66669 3.83759 3.83826C2.66602 5.00983 2.66602 6.89545 2.66602 10.6667V21.3334C2.66602 25.1046 2.66602 26.9902 3.83759 28.1618C5.00916 29.3334 6.89478 29.3334 10.666 29.3334H18.666Z" stroke="#141B34" stroke-width="1.5" stroke-linecap="round"/>
<path d="M8.66732 14.6666H7.33398M14.0007 14.6666H12.6673M8.66732 9.33331H7.33398M8.66732 20H7.33398M14.0007 9.33331H12.6673M14.0007 20H12.6673" stroke="#141B34" stroke-width="1.5" stroke-linecap="round"/>
<path d="M24.6673 20H23.334M24.6673 14.6667H23.334" stroke="#141B34" stroke-width="1.5" stroke-linecap="round"/>
<path d="M23.9993 10.6667H18.666V29.3334H23.9993C26.5135 29.3334 27.7705 29.3334 28.5516 28.5523C29.3327 27.7712 29.3327 26.5142 29.3327 24V16C29.3327 13.4859 29.3327 12.2288 28.5516 11.4477C27.7705 10.6667 26.5135 10.6667 23.9993 10.6667Z" stroke="#141B34" stroke-width="1.5" stroke-linecap="round"/>
</svg>
