<svg width="32" height="32" viewBox="0 0 32 32" fill="none" xmlns="http://www.w3.org/2000/svg">
<path d="M21.3327 29.3334C19.9113 27.6738 18.0443 26.6667 15.9993 26.6667C13.9544 26.6667 12.0874 27.6738 10.666 29.3334" stroke="#141B34" stroke-width="1.5" stroke-linecap="round"/>
<path d="M16.0007 17.3333C14.3099 17.3333 12.5221 17.6257 11.1207 18.017C10.0654 18.3117 9.21659 19.6553 9.34731 20.7461C9.39575 21.1502 9.74373 21.3333 10.1096 21.3333H21.8917C22.2576 21.3333 22.6056 21.1502 22.654 20.7461C22.7848 19.6553 21.9359 18.3117 20.8807 18.017C19.4792 17.6257 17.6915 17.3333 16.0007 17.3333Z" stroke="#141B34" stroke-width="1.5" stroke-linecap="round"/>
<path d="M27.9993 13.3333C26.5265 13.3333 25.3327 14.5272 25.3327 16V17.3333C25.3327 18.8061 24.1388 20 22.666 20" stroke="#141B34" stroke-width="1.5" stroke-linecap="round" stroke-linejoin="round"/>
<path d="M4 13.3333C5.47276 13.3333 6.66667 14.5272 6.66667 16V17.3333C6.66667 18.8061 7.86057 20 9.33333 20" stroke="#141B34" stroke-width="1.5" stroke-linecap="round" stroke-linejoin="round"/>
<path d="M16 21.3333V29.3333" stroke="#141B34" stroke-width="1.5" stroke-linecap="round" stroke-linejoin="round"/>
<path d="M17.0936 13.3334H14.9077C13.0381 13.3334 12.1034 13.3334 11.4272 12.7686C10.7509 12.2038 10.5242 11.2337 10.0708 9.29354C9.35788 6.24306 9.00143 4.71782 9.74997 3.69226C10.4985 2.66669 11.9682 2.66669 14.9077 2.66669H17.0936C20.0331 2.66669 21.5028 2.66669 22.2513 3.69226C22.9999 4.71782 22.6435 6.24306 21.9305 9.29354C21.4771 11.2337 21.2504 12.2038 20.5741 12.7686C19.898 13.3334 18.9632 13.3334 17.0936 13.3334Z" stroke="#141B34" stroke-width="1.5" stroke-linecap="round" stroke-linejoin="round"/>
<path d="M16 13.3333V17.3333" stroke="#141B34" stroke-width="1.5" stroke-linecap="round" stroke-linejoin="round"/>
</svg>
