<svg width="32" height="32" viewBox="0 0 32 32" fill="none" xmlns="http://www.w3.org/2000/svg">
<path d="M28 8.66669C28 10.8758 26.2092 12.6667 24 12.6667C21.7908 12.6667 20 10.8758 20 8.66669C20 6.45755 21.7908 4.66669 24 4.66669C26.2092 4.66669 28 6.45755 28 8.66669Z" stroke="#141B34" stroke-width="1.5"/>
<path d="M12 16C12 18.2092 10.2091 20 8 20C5.79087 20 4 18.2092 4 16C4 13.7908 5.79087 12 8 12C10.2091 12 12 13.7908 12 16Z" stroke="#141B34" stroke-width="1.5"/>
<path d="M28 23.3333C28 25.5425 26.2092 27.3333 24 27.3333C21.7908 27.3333 20 25.5425 20 23.3333C20 21.1241 21.7908 19.3333 24 19.3333C26.2092 19.3333 28 21.1241 28 23.3333Z" stroke="#141B34" stroke-width="1.5"/>
<path d="M11.6387 14.3326L20.3053 10.3333M11.6387 17.6666L20.3053 21.666" stroke="#141B34" stroke-width="1.5"/>
</svg>
